<?xml version="1.0" standalone="no"?>
<!DOCTYPE svg PUBLIC "-//W3C//DTD SVG 20010904//EN"
 "http://www.w3.org/TR/2001/REC-SVG-20010904/DTD/svg10.dtd">
<svg version="1.0" xmlns="http://www.w3.org/2000/svg"
 width="1024.000000pt" height="1024.000000pt" viewBox="0 0 1024.000000 1024.000000"
 preserveAspectRatio="xMidYMid meet">
<metadata>
Created by potrace 1.11, written by Peter Selinger 2001-2013
</metadata>
<g transform="translate(0.000000,1024.000000) scale(0.100000,-0.100000)"
fill="#000000" stroke="none">
<path d="M5029 9916 c-2 -2 -20 -6 -39 -9 -287 -39 -526 -302 -547 -603 -10
-139 42 -319 123 -431 101 -138 303 -263 427 -263 16 0 28 -2 25 -5 -3 -3 -90
-8 -194 -10 -103 -2 -220 -7 -259 -10 -38 -3 -101 -7 -140 -10 -38 -3 -86 -7
-105 -10 -19 -2 -69 -7 -110 -10 -41 -4 -82 -8 -90 -10 -8 -2 -35 -7 -60 -10
-25 -3 -58 -8 -75 -11 -16 -3 -43 -7 -60 -10 -266 -42 -577 -125 -815 -217
-122 -47 -410 -178 -520 -236 -48 -26 -219 -89 -261 -96 -104 -19 -143 -23
-229 -19 -52 2 -106 6 -120 9 -25 5 -52 10 -110 20 -16 3 -89 26 -162 50 -73
25 -152 52 -174 59 -40 13 -155 14 -201 3 -45 -11 -109 -45 -143 -75 -19 -18
-39 -32 -45 -32 -26 -1 -93 -130 -104 -202 -24 -151 33 -298 152 -387 107 -81
367 -175 570 -206 l37 -6 -81 -157 c-45 -86 -105 -202 -134 -257 -29 -55 -85
-162 -124 -238 -39 -76 -91 -175 -115 -220 -24 -45 -80 -154 -126 -242 -45
-88 -111 -214 -145 -280 -35 -66 -90 -172 -122 -235 -33 -63 -87 -167 -120
-230 -33 -63 -96 -182 -138 -265 -43 -82 -109 -208 -146 -280 l-67 -129 -106
-2 c-115 -1 -151 -12 -180 -51 -42 -57 -21 -193 54 -360 104 -228 337 -458
620 -610 223 -120 566 -233 780 -258 25 -3 52 -7 60 -10 8 -2 51 -7 95 -11 44
-3 83 -8 87 -10 11 -7 404 -6 478 1 87 7 143 14 215 25 33 5 78 12 100 16 159
24 446 116 612 195 83 39 263 143 301 173 156 125 237 204 316 311 89 120 148
241 181 373 23 91 2 151 -69 197 -24 16 -49 19 -138 20 l-110 0 -74 145 c-132
254 -264 510 -351 680 -47 91 -116 224 -153 295 -100 193 -207 399 -308 595
-98 192 -206 400 -331 643 -67 128 -78 157 -64 158 10 0 25 2 33 3 8 2 38 6
65 10 235 28 477 99 915 266 459 175 591 211 829 229 61 4 94 3 96 -4 2 -5 3
-1133 2 -2505 l-2 -2495 -40 -1 c-164 -6 -365 -119 -479 -268 -72 -95 -121
-215 -133 -326 -3 -30 -7 -57 -10 -60 -2 -2 -180 -5 -396 -5 -433 -1 -436 -2
-556 -66 -186 -100 -334 -318 -357 -527 -6 -60 -6 -62 17 -63 32 -1 5219 -1
5242 0 13 1 16 7 13 24 -3 12 -7 42 -10 67 -14 128 -93 278 -197 376 -93 86
-257 163 -388 181 -25 4 -198 7 -383 7 -186 1 -338 3 -338 6 -15 189 -82 344
-200 460 -58 57 -79 73 -132 102 -24 13 -45 26 -48 29 -15 17 -184 62 -243 63
-15 1 -31 6 -35 13 -5 8 -8 4933 -3 4988 1 7 35 8 102 3 226 -17 396 -63 804
-220 299 -115 543 -195 675 -223 8 -2 47 -10 85 -18 81 -18 131 -27 189 -33
67 -7 110 -14 114 -18 3 -4 -28 -65 -168 -331 -26 -49 -78 -148 -115 -220 -99
-191 -172 -330 -220 -420 -86 -163 -149 -283 -203 -385 -30 -58 -76 -145 -102
-195 -26 -49 -78 -148 -115 -220 -37 -71 -93 -177 -123 -235 -128 -242 -174
-330 -218 -415 l-46 -91 -101 1 c-186 1 -233 -49 -199 -215 16 -77 53 -175 92
-246 30 -56 61 -106 70 -114 3 -3 13 -17 22 -31 31 -50 173 -192 248 -249 90
-68 177 -125 245 -161 28 -14 59 -31 70 -37 34 -20 156 -73 230 -98 39 -14 79
-29 90 -33 54 -23 300 -82 398 -96 27 -3 58 -8 69 -10 11 -2 47 -7 81 -10 34
-3 85 -8 112 -11 63 -8 397 -8 450 0 22 3 74 8 115 12 41 3 77 7 80 9 3 2 30
6 60 10 30 4 84 14 120 22 36 8 76 17 90 20 14 2 64 16 113 29 594 171 1019
524 1147 954 26 87 23 144 -9 189 -37 51 -73 64 -188 65 -56 1 -106 6 -111 11
-5 6 -65 118 -132 250 -300 588 -366 717 -425 830 -34 66 -125 242 -200 390
-151 295 -284 555 -437 854 -55 106 -97 195 -94 198 2 3 22 7 43 10 123 15
341 87 484 158 133 67 205 170 216 312 18 224 -162 440 -375 448 -68 3 -79 0
-299 -79 -204 -74 -425 -99 -583 -66 -112 24 -169 46 -385 147 -358 169 -544
241 -805 312 -101 27 -327 76 -420 91 -41 6 -88 14 -105 17 -16 3 -41 6 -55 8
-14 1 -43 5 -65 8 -22 4 -71 9 -110 13 -38 3 -79 8 -89 10 -11 2 -65 6 -120 9
-56 3 -117 8 -136 10 -19 3 -125 7 -234 10 -110 3 -202 7 -204 10 -3 3 8 5 25
5 42 0 128 27 198 62 175 88 306 264 342 458 8 45 9 193 1 245 -22 137 -92
264 -198 363 -80 74 -201 138 -307 163 -47 11 -207 22 -214 15z m-2855 -3498
c21 -40 57 -109 81 -153 23 -44 64 -120 90 -170 26 -49 55 -103 65 -120 9 -16
43 -79 75 -140 32 -60 75 -141 95 -180 21 -38 59 -110 85 -160 26 -49 63 -119
83 -155 19 -35 54 -101 77 -145 23 -44 56 -105 72 -135 175 -326 213 -398 213
-406 0 -6 -388 -9 -984 -9 l-985 0 53 100 c30 55 69 129 88 165 19 36 61 115
93 175 32 61 66 124 75 140 10 17 38 68 62 115 102 193 152 288 178 335 15 28
49 91 75 140 26 50 65 122 85 160 21 39 57 106 80 150 23 44 59 112 80 150 21
39 55 103 76 143 21 39 41 72 44 72 3 0 22 -33 44 -72z m5938 -8 c20 -36 56
-103 80 -150 98 -184 122 -227 153 -285 18 -33 58 -109 90 -170 32 -60 70
-132 85 -160 37 -69 128 -239 270 -505 45 -85 97 -182 115 -215 81 -152 145
-273 145 -276 0 -3 -443 -4 -985 -4 -542 0 -985 1 -985 3 0 2 20 40 44 85 24
45 87 165 141 266 54 101 113 211 131 245 18 33 52 97 75 141 23 44 54 103 69
130 15 28 51 95 80 150 29 55 69 129 88 165 34 63 49 92 155 290 27 52 62 118
77 145 15 28 46 86 69 129 54 102 52 99 61 89 4 -4 23 -37 42 -73z"/>
</g>
</svg>
