<?xml version="1.0" standalone="no"?>
<!DOCTYPE svg PUBLIC "-//W3C//DTD SVG 20010904//EN"
 "http://www.w3.org/TR/2001/REC-SVG-20010904/DTD/svg10.dtd">
<svg version="1.0" xmlns="http://www.w3.org/2000/svg"
 width="500.000000pt" height="500.000000pt" viewBox="0 0 500.000000 500.000000"
 preserveAspectRatio="xMidYMid meet">
<metadata>
Created by potrace 1.15, written by Peter Selinger 2001-2017
</metadata>
<g transform="translate(0.000000,500.000000) scale(0.100000,-0.100000)"
fill="#000000" stroke="none">
<path d="M2190 4140 l0 -280 -276 0 -275 0 3 140 3 140 -412 0 -413 0 0 -270
0 -270 135 0 135 0 0 130 0 130 275 0 274 0 3 -132 3 -133 273 -3 272 -2 0
-1095 0 -1094 -132 -3 -133 -3 -3 -137 -3 -137 -137 -3 -137 -3 0 -133 0 -132
-272 0 -273 0 0 -140 0 -140 1375 0 1375 0 0 140 0 140 -275 0 -275 0 0 135 0
135 -140 0 -140 0 0 140 0 140 -135 0 -135 0 0 960 0 960 415 0 415 0 0 -135
0 -135 135 0 135 0 0 -140 0 -140 135 0 135 0 0 140 c1 77 1 200 1 273 l0 132
-270 3 -271 2 0 135 0 135 -415 0 -415 0 0 415 0 415 -280 0 -280 0 0 -280z"/>
<path d="M550 3320 l0 -270 135 0 135 0 0 270 0 270 -135 0 -135 0 0 -270z"/>
<path d="M1100 3320 l0 -270 135 0 135 0 0 270 0 270 -135 0 -135 0 0 -270z"/>
<path d="M270 2768 l0 -278 140 0 140 0 0 -135 0 -135 413 2 412 3 0 133 0
132 133 0 132 0 0 275 0 275 -130 0 -130 0 0 -135 0 -135 -415 0 -415 0 0 134
0 135 -140 3 -140 3 0 -277z"/>
<path d="M3580 2495 l0 -275 -140 0 -140 0 0 -277 0 -278 137 0 138 0 3 -132
3 -133 404 0 404 0 3 133 3 132 138 0 137 0 0 278 0 277 -135 0 -134 0 -3
-137 -3 -138 -410 0 -410 0 0 135 0 135 133 3 132 3 0 274 0 275 -130 0 -130
0 0 -275z"/>
<path d="M4130 2495 l0 -275 130 0 130 0 0 275 0 275 -130 0 -130 0 0 -275z"/>
</g>
</svg>
